<svg aria-hidden="true" xmlns="http://www.w3.org/2000/svg" xmlns:xlink="http://www.w3.org/1999/xlink"><symbol viewBox="0 0 57 60" id="Unselect_items" xmlns="http://www.w3.org/2000/svg">
<g id="aUnselect items icon">
<path id="aVector" d="M13.2292 10.8394L10.6875 13.5375L26.2009 30L10.6875 46.4644L13.231 49.1625L28.7391 32.6944L44.2491 49.1606L46.789 46.4644L31.2773 30L46.789 13.5356L44.2473 10.8375L28.7391 27.3056L13.2292 10.8394Z"/>
</g>
</symbol><symbol viewBox="0 0 67 129" id="arrow-bl" xmlns="http://www.w3.org/2000/svg">
<path id="bVector 13" d="M65 127L3 64L65 2" stroke-width="4"/>
</symbol><symbol viewBox="0 0 67 129" id="arrow-br" xmlns="http://www.w3.org/2000/svg">
<path id="cVector 12" d="M2 127L64 64L2 2" stroke-width="4"/>
</symbol><symbol viewBox="0 0 27 48" id="arrow-sl" xmlns="http://www.w3.org/2000/svg">
<path id="dVector 13" d="M25.32 46.5L3 23.82L25.32 1.5" stroke-width="4"/>
</symbol><symbol viewBox="0 0 27 48" id="arrow-sr" xmlns="http://www.w3.org/2000/svg">
<path id="eVector 12" d="M1.67993 46.5L23.9999 23.82L1.67993 1.5" stroke-width="4"/>
</symbol><symbol viewBox="0 0 18 18" id="cart" xmlns="http://www.w3.org/2000/svg">
<path d="M6.1875 15.75C6.80882 15.75 7.3125 15.2463 7.3125 14.625C7.3125 14.0037 6.80882 13.5 6.1875 13.5C5.56618 13.5 5.0625 14.0037 5.0625 14.625C5.0625 15.2463 5.56618 15.75 6.1875 15.75Z"/>
<path d="M14.0625 15.75C14.6838 15.75 15.1875 15.2463 15.1875 14.625C15.1875 14.0037 14.6838 13.5 14.0625 13.5C13.4412 13.5 12.9375 14.0037 12.9375 14.625C12.9375 15.2463 13.4412 15.75 14.0625 15.75Z"/>
<path d="M16.0594 4.24617C15.9803 4.14951 15.8808 4.07166 15.7679 4.01827C15.6551 3.96487 15.5317 3.93729 15.4069 3.9375H4.70707L4.49156 2.71477C4.46858 2.58452 4.40045 2.46654 4.29912 2.38154C4.19779 2.29655 4.06976 2.24997 3.9375 2.25H1.6875C1.53832 2.25 1.39524 2.30926 1.28975 2.41475C1.18426 2.52024 1.125 2.66332 1.125 2.8125C1.125 2.96168 1.18426 3.10476 1.28975 3.21025C1.39524 3.31574 1.53832 3.375 1.6875 3.375H3.4657L5.07094 12.4727C5.09392 12.603 5.16205 12.721 5.26338 12.806C5.36471 12.891 5.49274 12.9375 5.625 12.9375H14.625C14.7742 12.9375 14.9173 12.8782 15.0227 12.7727C15.1282 12.6673 15.1875 12.5242 15.1875 12.375C15.1875 12.2258 15.1282 12.0827 15.0227 11.9773C14.9173 11.8718 14.7742 11.8125 14.625 11.8125H6.0968L5.89852 10.6875H14.3944C14.5894 10.6873 14.7784 10.6196 14.9294 10.496C15.0803 10.3725 15.1839 10.2005 15.2227 10.0093L16.2352 4.94684C16.2596 4.82432 16.2564 4.69791 16.226 4.57674C16.1956 4.45557 16.1387 4.34266 16.0594 4.24617Z"/>
</symbol><symbol viewBox="0 0 25 27" id="delivery" xmlns="http://www.w3.org/2000/svg">
<g id="gGroup">
<path id="gVector" d="M3.83501 25.9993C5.40075 25.9993 6.67003 24.7557 6.67003 23.2216C6.67003 21.6875 5.40075 20.4438 3.83501 20.4438C2.26928 20.4438 1 21.6875 1 23.2216C1 24.7557 2.26928 25.9993 3.83501 25.9993Z" stroke-width="2" stroke-linecap="round" stroke-linejoin="round"/>
<path id="gVector_2" d="M19.4275 25.9993C20.9933 25.9993 22.2626 24.7557 22.2626 23.2216C22.2626 21.6875 20.9933 20.4438 19.4275 20.4438C17.8618 20.4438 16.5925 21.6875 16.5925 23.2216C16.5925 24.7557 17.8618 25.9993 19.4275 25.9993Z" stroke-width="2" stroke-linecap="round" stroke-linejoin="round"/>
<path id="gVector_3" d="M19.4276 20.4441H3.83501V1H1" stroke-width="2" stroke-linecap="round" stroke-linejoin="round"/>
<path id="gVector_4" d="M3.83496 3.77734L23.6801 5.16621L22.2625 14.8883H3.83496" stroke-width="2" stroke-linecap="round" stroke-linejoin="round"/>
</g>
</symbol><symbol viewBox="0 0 12 21" id="facebook" xmlns="http://www.w3.org/2000/svg">
<path id="hVector" d="M9.0032 0C5.8496 0 4 1.5615 4 5.1195V8.25H0V12H4V21H8V12H11.2L12 8.25H8V5.754C8 4.41375 8.4664 3.75 9.808 3.75H12V0.15375C11.6208 0.10575 10.516 0 9.0032 0Z"/>
</symbol><symbol viewBox="0 0 28 28" id="guarantee" xmlns="http://www.w3.org/2000/svg">
<g id="iGroup">
<path id="iVector" d="M14.3645 18.2502C19.2262 18.2502 23.1675 14.3886 23.1675 9.6251C23.1675 4.86159 19.2262 1 14.3645 1C9.50274 1 5.56152 4.86159 5.56152 9.6251C5.56152 14.3886 9.50274 18.2502 14.3645 18.2502Z" stroke-width="2" stroke-linecap="round" stroke-linejoin="round"/>
<path id="iVector_2" d="M14.3677 18.2544L19.356 26.7214L21.7005 22.0739L26.9794 22.4074L21.991 13.9419" stroke-width="2" stroke-linecap="round" stroke-linejoin="round"/>
<path id="iVector_3" d="M6.73835 13.9419L1.75 22.4089L7.02884 22.0739L9.37337 26.72L14.3617 18.2544" stroke-width="2" stroke-linecap="round" stroke-linejoin="round"/>
</g>
</symbol><symbol viewBox="0 0 18 19" id="insta" xmlns="http://www.w3.org/2000/svg">
<path id="jVector" d="M5.29282 0C2.38745 0 0 2.51664 0 5.58686V13.4131C0 16.4799 2.38418 19 5.29282 19H12.7072C15.6125 19 18 16.4834 18 13.4131V5.58773C18 2.52009 15.6158 0 12.7072 0H5.29282ZM5.29282 1.72727H12.7072C13.1875 1.72659 13.6633 1.82596 14.1072 2.01968C14.5511 2.2134 14.9545 2.49767 15.2941 2.8562C15.6338 3.21473 15.9031 3.64048 16.0866 4.10906C16.2701 4.57763 16.3643 5.07982 16.3636 5.58686V13.4131C16.3643 13.9202 16.2701 14.4224 16.0866 14.8909C15.9031 15.3595 15.6338 15.7853 15.2941 16.1438C14.9545 16.5023 14.5511 16.7866 14.1072 16.9803C13.6633 17.174 13.1875 17.2734 12.7072 17.2727H5.29364C4.81321 17.2735 4.33736 17.1742 3.89336 16.9806C3.44935 16.7869 3.04591 16.5027 2.70616 16.1441C2.36641 15.7856 2.09703 15.3598 1.91346 14.8911C1.72988 14.4225 1.63572 13.9202 1.63636 13.4131V5.58773C1.63561 5.08061 1.72967 4.57833 1.91314 4.10965C2.09662 3.64098 2.36591 3.21513 2.70558 2.8565C3.04526 2.49788 3.44863 2.21353 3.8926 2.01976C4.33657 1.82598 4.8124 1.72659 5.29282 1.72727ZM13.8322 3.61691C13.7347 3.61645 13.6381 3.63638 13.548 3.67554C13.4579 3.7147 13.376 3.77232 13.3071 3.84507C13.2381 3.91781 13.1836 4.00425 13.1465 4.09939C13.1094 4.19453 13.0905 4.29648 13.0909 4.39936C13.0909 4.83464 13.4198 5.18182 13.8322 5.18182C13.9297 5.18239 14.0264 5.16255 14.1166 5.12344C14.2068 5.08433 14.2888 5.02673 14.3578 4.95397C14.4268 4.88121 14.4815 4.79473 14.5187 4.69954C14.5558 4.60434 14.5747 4.50232 14.5743 4.39936C14.5747 4.29641 14.5558 4.19439 14.5187 4.09919C14.4815 4.00399 14.4268 3.91752 14.3578 3.84476C14.2888 3.772 14.2068 3.7144 14.1166 3.67529C14.0264 3.63618 13.9297 3.61634 13.8322 3.61691ZM9 4.31818C6.3 4.31818 4.09091 6.65 4.09091 9.5C4.09091 12.35 6.3 14.6818 9 14.6818C11.7 14.6818 13.9091 12.35 13.9091 9.5C13.9091 6.65 11.7 4.31818 9 4.31818ZM9 6.04545C10.8188 6.04545 12.2727 7.58014 12.2727 9.5C12.2727 11.4199 10.8188 12.9545 9 12.9545C7.18118 12.9545 5.72727 11.4199 5.72727 9.5C5.72727 7.58014 7.18118 6.04545 9 6.04545Z"/>
</symbol><symbol viewBox="0 0 18 19" id="linkedin" xmlns="http://www.w3.org/2000/svg">
<path id="kVector" d="M2.26543 6.54207e-07C1.96808 -0.000226251 1.6736 0.0585739 1.39881 0.173042C1.12403 0.287511 0.874311 0.455405 0.663936 0.667134C0.45356 0.878863 0.286645 1.13028 0.172725 1.40702C0.058805 1.68376 0.000112504 1.9804 0 2.28C0 3.54091 1.014 4.58591 2.26286 4.58591C3.51343 4.58591 4.52829 3.54091 4.52829 2.28173C4.52851 1.98217 4.47015 1.6855 4.35653 1.40868C4.24291 1.13186 4.07626 0.880308 3.86612 0.668408C3.65597 0.456507 3.40644 0.288409 3.13178 0.17372C2.85713 0.0590315 2.56274 5.68245e-07 2.26543 6.54207e-07ZM13.3157 6.04546C11.4137 6.04546 10.326 7.04727 9.80314 8.04391H9.74829V6.31405H6V19H9.906V12.7205C9.906 11.0658 10.0294 9.46632 12.0617 9.46632C14.0649 9.46632 14.094 11.3534 14.094 12.825V19H18V12.0322C18 8.62255 17.2723 6.04546 13.3157 6.04546ZM0.311143 6.31318V19H4.21971V6.31318H0.311143Z"/>
</symbol><symbol viewBox="0 0 30 24" id="mastercard" xmlns="http://www.w3.org/2000/svg">
<g id="lbrandico:mastercard" clip-path="url(#lclip0_17_783)">
<path id="lVector" d="M1.39593 2.84964C0.62523 2.84964 0 3.47454 0 4.24557V20.2937C0 21.0646 0.62532 21.6896 1.39593 21.6896H28.6041C29.3748 21.6896 30 21.0647 30 20.2937V4.24554C30 3.47463 29.3747 2.84961 28.6041 2.84961H1.3959L1.39593 2.84964ZM9.83718 5.11746C11.5496 5.11746 13.1223 5.71323 14.3569 6.70839C13.3182 7.63776 12.5435 8.85879 12.1613 10.2428H12.7603C13.1131 9.10104 13.754 8.08452 14.5988 7.27839C15.4435 8.08452 16.0844 9.10104 16.4372 10.2428H17.0456C16.6581 8.86608 15.8823 7.65234 14.8444 6.72903C16.0813 5.72124 17.6602 5.11743 19.38 5.11743C23.3487 5.11743 26.5659 8.33499 26.5659 12.3043C26.5659 16.2736 23.3487 19.4912 19.38 19.4912C17.6316 19.4912 16.0284 18.8671 14.7825 17.829C15.897 16.8594 16.7186 15.5596 17.0944 14.0809H16.5084C16.1748 15.322 15.5032 16.4258 14.5987 17.289C13.6942 16.4258 13.0236 15.322 12.69 14.0809H12.1321C12.5101 15.5382 13.321 16.8198 14.4187 17.7803C13.1751 18.8056 11.5782 19.4218 9.83715 19.4218C5.86845 19.4218 2.65125 16.2197 2.65125 12.2696C2.65125 8.31954 5.86845 5.11746 9.83718 5.11746ZM18.8409 10.1696C17.9775 10.1696 17.1375 10.9245 17.1375 12.3418C17.1375 13.2817 17.5912 13.9018 18.4837 13.9018C18.7361 13.9019 19.1381 13.7987 19.1381 13.7987L19.2712 12.9775C19.2712 12.9775 18.9044 13.1631 18.6525 13.1631C18.122 13.1631 17.9091 12.755 17.9091 12.3165C17.9091 11.4269 18.3655 10.9374 18.8737 10.9374C19.2548 10.9374 19.5609 11.1531 19.5609 11.1531L19.6828 10.3543C19.6828 10.3543 19.2297 10.1696 18.8409 10.1696H18.8409ZM26.1 10.239L25.3491 10.2409L25.1878 11.229C25.1878 11.229 24.9055 10.8456 24.4641 10.8456C23.7777 10.8456 23.2059 11.661 23.2059 12.5987C23.2059 13.204 23.5102 13.7977 24.1341 13.7977C24.5828 13.7977 24.8316 13.4893 24.8316 13.4893L24.7987 13.7527H25.5281L26.1 10.239ZM4.59186 10.2493L3.99375 13.7715H4.71468L5.17032 11.1156L5.23782 13.7715H5.75343L6.71532 11.1156L6.28875 13.7715H7.05468L7.64532 10.2493H6.46032L5.7225 12.4102L5.68407 10.2493H4.59189L4.59186 10.2493ZM12.1237 10.4781C12.1075 10.4944 11.6878 12.9143 11.6878 13.209C11.6878 13.6454 11.9324 13.8403 12.2766 13.8371C12.5232 13.835 12.7141 13.7731 12.8025 13.7471C12.8117 13.7446 12.8297 13.7396 12.8297 13.7396L12.9225 13.1096C12.872 13.1096 12.7977 13.1312 12.7322 13.1312C12.4752 13.1312 12.4468 12.9945 12.4631 12.8931L12.6703 11.6078H13.0612L13.1559 10.9112H12.7875L12.8625 10.4781H12.1237ZM20.8378 10.8325C20.3346 10.8325 19.9491 10.9984 19.9491 10.9984L19.8422 11.6453C19.8422 11.6453 20.1606 11.5131 20.6419 11.5131C20.9151 11.5131 21.1153 11.5443 21.1153 11.7718C21.1153 11.91 21.0909 11.9612 21.0909 11.9612C21.0909 11.9612 20.8749 11.9425 20.775 11.9425C20.1404 11.9425 19.4737 12.2206 19.4737 13.0571C19.4737 13.7163 19.9114 13.8671 20.1825 13.8671C20.7002 13.8671 20.9235 13.5232 20.9353 13.5221L20.9109 13.809H21.5569L21.8456 11.739C21.8457 10.8607 21.0976 10.8324 20.8378 10.8324V10.8325ZM8.72061 10.8362C8.21559 10.8362 7.82811 11.0021 7.82811 11.0021L7.72125 11.649C7.72125 11.649 8.04075 11.5168 8.52375 11.5168C8.79801 11.5168 8.99907 11.5482 8.99907 11.7756C8.99907 11.9137 8.97468 11.965 8.97468 11.965C8.97468 11.965 8.75799 11.9462 8.65782 11.9462C8.02083 11.9462 7.35189 12.2239 7.35189 13.06C7.35189 13.7188 7.79043 13.87 8.0625 13.87C8.58213 13.87 8.8062 13.526 8.81814 13.525L8.79375 13.8118H9.4425L9.73218 11.7428C9.73218 10.8649 8.98137 10.8362 8.72061 10.8362V10.8362ZM11.0119 10.8362C10.4696 10.8362 9.91875 11.0551 9.91875 11.8028C9.91875 12.6499 10.8366 12.5643 10.8366 12.9212C10.8366 13.1594 10.5804 13.179 10.3828 13.179C10.0408 13.179 9.73329 13.0609 9.73218 13.0665L9.63375 13.7134C9.65145 13.7189 9.84189 13.8043 10.4569 13.8043C10.622 13.8043 11.5659 13.8463 11.5659 12.8631C11.5659 11.9439 10.6922 12.1261 10.6922 11.7568C10.6922 11.573 10.8341 11.515 11.0944 11.515C11.1977 11.515 11.596 11.5478 11.596 11.5478L11.6878 10.8943C11.6878 10.8944 11.4309 10.8362 11.0119 10.8362H11.0119ZM14.4019 10.8362C13.6483 10.8364 13.0903 11.6467 13.0903 12.5621C13.0903 13.6187 13.7894 13.87 14.385 13.87C14.9348 13.87 15.1772 13.7471 15.1772 13.7471L15.3084 13.0262C15.3084 13.0262 14.8902 13.21 14.5125 13.21C13.7077 13.21 13.8488 12.6109 13.8488 12.6109H15.3722C15.3722 12.6109 15.4706 12.1267 15.4706 11.9293C15.4706 11.4367 15.2248 10.8362 14.4019 10.8362H14.4019ZM17.131 10.8671C16.7914 10.8671 16.5394 11.3237 16.5394 11.3237L16.6069 10.9046H15.9019L15.4285 13.7978H16.2075C16.4282 12.5623 16.4684 11.5591 16.995 11.7428C17.0872 11.2646 17.1766 11.0798 17.2772 10.8775C17.2772 10.8775 17.2299 10.8671 17.1309 10.8671H17.131ZM23.4431 10.8671C23.1036 10.8671 22.8516 11.3237 22.8516 11.3237L22.9191 10.9046H22.2141L21.7406 13.7978H22.5187C22.7395 12.5623 22.7808 11.5591 23.3072 11.7428C23.3995 11.2646 23.4889 11.0798 23.5894 10.8775C23.5894 10.8775 23.5421 10.8671 23.4431 10.8671H23.4431ZM14.3981 11.4887C14.8261 11.4887 14.7478 11.9718 14.7478 12.0109H13.905C13.905 11.961 13.9847 11.4887 14.3981 11.4887H14.3981ZM24.5822 11.545C24.8546 11.5449 24.9947 11.7289 24.9947 12.1618C24.9947 12.5546 24.7966 13.0796 24.3862 13.0796C24.1139 13.0796 23.9859 12.8547 23.9859 12.5021C23.9859 11.9256 24.2497 11.545 24.5822 11.545H24.5822ZM20.8387 12.5293C20.9499 12.5295 20.9728 12.5403 20.9916 12.5453C20.9889 12.5448 20.9884 12.5453 20.9991 12.5471C21.0131 12.676 20.9212 13.2803 20.4769 13.2803C20.2477 13.2803 20.1891 13.0981 20.1891 12.9906C20.1891 12.7809 20.2982 12.5293 20.8387 12.5293ZM8.72157 12.5321C8.84778 12.5323 8.86155 12.5464 8.88282 12.55C8.89692 12.6787 8.80464 13.2821 8.35875 13.2821C8.12874 13.2821 8.06907 13.1008 8.06907 12.9934C8.06907 12.7839 8.17887 12.5321 8.72157 12.5321Z"/>
</g>
<defs>
<clipPath id="lclip0_17_783">
<rect width="30" height="24"/>
</clipPath>
</defs>
</symbol><symbol viewBox="0 0 28 27" id="offers" xmlns="http://www.w3.org/2000/svg">
<g id="mGroup">
<path id="mVector" d="M13.2208 1L26.4067 13.9195C26.7671 14.3143 26.9663 14.8253 26.9663 15.355C26.9663 15.8846 26.7671 16.3957 26.4067 16.7905L17.6161 25.4035C17.2132 25.7566 16.6916 25.9518 16.151 25.9518C15.6104 25.9518 15.0888 25.7566 14.6859 25.4035L1.5 12.484V6.742C1.5 5.21913 2.11743 3.75863 3.21647 2.68179C4.31551 1.60496 5.80613 1 7.36041 1H13.2208Z" stroke-width="2" stroke-linecap="round" stroke-linejoin="round"/>
<path id="mVector_2" d="M10.2906 12.4842C11.9089 12.4842 13.2208 11.1988 13.2208 9.61319C13.2208 8.02758 11.9089 6.74219 10.2906 6.74219C8.6723 6.74219 7.3604 8.02758 7.3604 9.61319C7.3604 11.1988 8.6723 12.4842 10.2906 12.4842Z" stroke-width="2" stroke-linecap="round" stroke-linejoin="round"/>
</g>
</symbol><symbol viewBox="0 0 60 24" id="partner1" xmlns="http://www.w3.org/2000/svg">
<g id="nfa-brands:dhl">
<path id="nVector" d="M22.3125 16.2383H27.8156L29.9062 13.407H24.4031L22.3125 16.2383ZM0 14.5227V15.1227H7.66875L8.10938 14.5227H0ZM16.2094 13.407C15.3937 13.407 15.6469 13.0695 15.7781 12.8914C16.0406 12.5352 16.4906 11.9164 16.7531 11.5695C17.0156 11.2227 17.0156 11.0164 16.4906 11.0164H11.7094L7.85625 16.2477H17.2406C20.3438 16.2477 22.0688 14.1383 22.6031 13.407H16.2094ZM45.975 12.7602L49.6594 7.75391H43.8281L40.1438 12.7602H45.975ZM8.93438 13.407H0V14.007H8.49375L8.93438 13.407ZM19.3406 10.9133C19.0781 11.2695 18.6375 11.8883 18.375 12.2445C18.2437 12.432 17.9906 12.7602 18.8063 12.7602H23.0812C23.0812 12.7602 23.7656 11.8227 24.3469 11.0352C25.1344 9.96641 24.4125 7.75391 21.6094 7.75391H10.5562L8.64375 10.3602H19.0875C19.6125 10.3602 19.6031 10.5664 19.3406 10.9133ZM0 16.2383H6.85312L7.29375 15.6383H0V16.2383ZM30.2812 16.2383H35.7844L37.875 13.407H32.3719C32.3625 13.407 30.2812 16.2383 30.2812 16.2383ZM51.0938 16.2477H60V15.6477H51.5344L51.0938 16.2477ZM53.1844 13.407L52.7437 14.007H60V13.407H53.1844ZM51.9187 15.1227H60V14.5227H52.3594L51.9187 15.1227ZM36.525 7.75391L34.4156 10.6227H31.9594L34.0687 7.75391H28.5656L24.8812 12.7602H38.3438L42.0281 7.75391H36.525ZM39.6656 13.407C39.6656 13.407 39.2625 13.9602 39.0656 14.2227C38.3719 15.1602 38.9813 16.2477 41.2406 16.2477H50.0813L52.1719 13.407H39.6656Z"/>
</g>
</symbol><symbol viewBox="0 0 38 24" id="partner2" xmlns="http://www.w3.org/2000/svg">
<g id="oarcticons:post">
<path id="oVector" d="M22.2476 6.38319L19.8117 9.72719C19.4389 9.37424 18.9854 9.11789 18.4908 8.98054C17.9961 8.84318 17.4754 8.82899 16.974 8.9392C16.4726 9.04941 16.0058 9.28067 15.6143 9.6128C15.2229 9.94492 14.9187 10.3678 14.7283 10.8446C14.5378 11.3213 14.467 11.8374 14.522 12.3478C14.5769 12.8583 14.756 13.3475 15.0435 13.7727C15.331 14.198 15.7183 14.5465 16.1715 14.7877C16.6246 15.0289 17.13 15.1555 17.6433 15.1564C18.5489 15.2382 19.451 14.9658 20.16 14.3964C21.0063 13.733 24.8451 8.46686 26.5377 4.95978M26.5377 4.95898H34.4369H26.5377Z" stroke-linecap="round" stroke-linejoin="round"/>
<path id="oVector_2" d="M34.4375 4.95764C27.5777 15.3681 22.663 19.3921 17.9265 19.309C13.19 19.2259 10.355 16.0449 10.355 12.0043C10.3494 10.6302 10.7324 9.2826 11.46 8.11698C12.1876 6.95136 13.23 6.01527 14.4668 5.41679C15.7037 4.8183 17.0846 4.58183 18.4501 4.73466C19.8157 4.88749 21.1101 5.4234 22.1841 6.28052M3.5625 4.95764L7.36171 11.287M7.3625 11.2609C7.5112 8.84926 8.56465 6.58262 10.3123 4.9141L3.5625 4.95843L7.3625 11.2609Z" stroke-linecap="round" stroke-linejoin="round"/>
</g>
</symbol><symbol viewBox="0 0 29 24" id="paypal" xmlns="http://www.w3.org/2000/svg">
<g id="pfontisto:paypal">
<path id="pVector" d="M27.0667 22H1.93333C1.42058 22 0.928831 21.7998 0.56626 21.4435C0.20369 21.0872 0 20.6039 0 20.1L0 4.9C0 4.39609 0.20369 3.91282 0.56626 3.5565C0.928831 3.20018 1.42058 3 1.93333 3H27.0667C27.5794 3 28.0712 3.20018 28.4337 3.5565C28.7963 3.91282 29 4.39609 29 4.9V20.1C29 20.6039 28.7963 21.0872 28.4337 21.4435C28.0712 21.7998 27.5794 22 27.0667 22ZM11.3036 11.174C11.2815 11.1742 11.2598 11.1794 11.24 11.189C11.2202 11.1985 11.2028 11.2124 11.1892 11.2294C11.1574 11.2611 11.1393 11.3036 11.1384 11.3481C11.1384 11.3647 11.2174 11.6015 11.3865 12.0868L11.7522 13.1365L11.9222 13.6258C12.1129 14.1746 12.2125 14.4665 12.2211 14.5013C11.846 14.9577 11.507 15.4415 11.2069 15.9485L11.1763 16.0039L11.1747 16.0237C11.1747 16.1029 11.2399 16.1678 11.3213 16.1678L11.343 16.1662H11.3422H12.3234C12.3691 16.1659 12.414 16.1542 12.4539 16.1322C12.4938 16.1102 12.5273 16.0786 12.5514 16.0403L12.5522 16.0395L15.8002 11.4328C15.8172 11.4107 15.8266 11.3838 15.8267 11.356L15.8259 11.3442V11.345C15.8248 11.3005 15.8067 11.2581 15.7752 11.2262C15.7617 11.2092 15.7444 11.1955 15.7248 11.1859C15.7051 11.1763 15.6835 11.1711 15.6616 11.1708H14.6796C14.6338 11.1711 14.5888 11.1828 14.5488 11.2048C14.5088 11.2268 14.4751 11.2584 14.4509 11.2967L14.4501 11.2975L13.0967 13.2497L12.5369 11.3719C12.5225 11.3147 12.4891 11.2638 12.442 11.2274C12.3948 11.1909 12.3366 11.171 12.2767 11.1708L12.2557 11.1716H12.2565L11.3036 11.174ZM22.5636 11.0861H22.5427C21.9321 11.0861 21.3835 11.3465 21.0049 11.7598L21.0033 11.7614C20.5892 12.1823 20.358 12.745 20.3588 13.3305V13.3518V13.351C20.3572 13.374 20.3572 13.4017 20.3572 13.4286C20.3572 13.8538 20.5256 14.2409 20.7994 14.5283L20.7986 14.5275C20.9544 14.6766 21.1399 14.7925 21.3434 14.868C21.5468 14.9434 21.764 14.9768 21.9812 14.966H21.9772C22.2486 14.9629 22.5064 14.9083 22.7416 14.8101L22.7288 14.8148C22.9664 14.727 23.1678 14.59 23.3265 14.4158L23.3281 14.4143C23.32 14.4594 23.3112 14.4974 23.3007 14.5338L23.3023 14.5259C23.2879 14.5743 23.2793 14.6243 23.2765 14.6747V14.6763C23.2765 14.8093 23.3321 14.8766 23.4425 14.8766H24.3213C24.3557 14.8796 24.3902 14.8758 24.4231 14.8655C24.4559 14.8552 24.4862 14.8385 24.5124 14.8164C24.5385 14.7943 24.5599 14.7674 24.5752 14.737C24.5905 14.7067 24.5995 14.6737 24.6017 14.6399V14.6391L25.1237 11.3719C25.1286 11.3472 25.1277 11.3218 25.1212 11.2975C25.1146 11.2732 25.1025 11.2507 25.0858 11.2318C25.0713 11.2121 25.0523 11.1962 25.0303 11.1852C25.0083 11.1742 24.984 11.1684 24.9593 11.1684H23.9903C23.8718 11.1684 23.7969 11.307 23.7728 11.5817C23.631 11.4029 23.4445 11.2632 23.2315 11.1762C23.0184 11.0892 22.7861 11.0579 22.5572 11.0853L22.5636 11.0845V11.0861ZM8.09342 11.0861H8.07086C7.46106 11.0861 6.91247 11.3465 6.53547 11.7598L6.53386 11.7614C6.11977 12.1823 5.88864 12.745 5.88942 13.3305V13.3518V13.351C5.87875 13.5662 5.91234 13.7813 5.98819 13.9834C6.06404 14.1856 6.18058 14.3706 6.33086 14.5275L6.33006 14.5267C6.61522 14.799 7.00511 14.9668 7.43528 14.9668L7.51261 14.9653H7.50858C7.77603 14.9613 8.02978 14.9067 8.26097 14.8093L8.24808 14.814C8.48895 14.7238 8.69356 14.5876 8.85869 14.4143L8.8595 14.4135C8.82969 14.491 8.81117 14.5813 8.80875 14.6747V14.6763C8.80875 14.8093 8.86514 14.8766 8.97469 14.8766H9.85275C9.88707 14.8796 9.92166 14.8758 9.95447 14.8655C9.98728 14.8552 10.0177 14.8385 10.0438 14.8164C10.0699 14.7943 10.0913 14.7674 10.1066 14.737C10.122 14.7067 10.131 14.6737 10.1331 14.6399V14.6391L10.6559 11.3719C10.6603 11.3474 10.6591 11.3223 10.6524 11.2983C10.6457 11.2744 10.6337 11.2522 10.6172 11.2333C10.6027 11.2137 10.5837 11.1977 10.5617 11.1867C10.5397 11.1757 10.5154 11.17 10.4908 11.17H9.52167C9.40325 11.17 9.32833 11.3085 9.30497 11.5833C9.1617 11.4059 8.97491 11.2672 8.76213 11.1802C8.54936 11.0933 8.31759 11.0609 8.08858 11.0861L8.09503 11.0853L8.09342 11.0861ZM26.2708 9.33333L26.2579 9.33254C26.2194 9.33241 26.1823 9.34651 26.154 9.37203C26.1256 9.39755 26.1081 9.43263 26.1048 9.47029V9.47108L25.2767 14.6787C25.2699 14.7037 25.2698 14.7301 25.2765 14.7552C25.2831 14.7803 25.2962 14.8033 25.3146 14.822C25.3298 14.8397 25.3488 14.8539 25.3703 14.8636C25.3917 14.8733 25.415 14.8783 25.4386 14.8782H26.2845L26.3103 14.8798C26.3743 14.8798 26.4358 14.8547 26.4811 14.8102C26.5265 14.7656 26.5519 14.7052 26.5519 14.6423V14.6407L27.3784 9.52254L27.3792 9.50513C27.3792 9.45998 27.3642 9.41609 27.3365 9.38004V9.38083C27.3221 9.36567 27.3046 9.35356 27.2852 9.34526C27.2658 9.33696 27.2449 9.33263 27.2237 9.33254L27.2117 9.33333H27.2125H26.2708ZM16.8699 9.33333C16.8354 9.32888 16.8002 9.33163 16.7668 9.34142C16.7334 9.35121 16.7024 9.36782 16.676 9.39015C16.6495 9.41249 16.6282 9.44005 16.6133 9.47105C16.5984 9.50204 16.5903 9.53578 16.5896 9.57004L15.7623 14.6779C15.758 14.7022 15.7592 14.7271 15.7658 14.7509C15.7723 14.7746 15.784 14.7968 15.8002 14.8156C15.8144 14.8353 15.8332 14.8514 15.8551 14.8624C15.877 14.8734 15.9013 14.8791 15.9258 14.879H16.9771C17.0243 14.8789 17.07 14.8628 17.1064 14.8334C17.1428 14.8039 17.1677 14.7629 17.1769 14.7175V14.7159L17.4064 13.264C17.4133 13.2004 17.4454 13.1421 17.4959 13.1017H17.4967C17.5516 13.058 17.6176 13.0298 17.6876 13.0201H17.69C17.7552 13.0083 17.8302 13.0019 17.9067 13.0011H17.9075C17.9752 13.0011 18.0557 13.0051 18.1492 13.0138C18.2513 13.0253 18.3541 13.0306 18.4569 13.0296C19.0471 13.0306 19.6158 12.8119 20.0487 12.4177L20.0471 12.4193C20.2629 12.1943 20.4296 11.9283 20.5368 11.6376C20.6441 11.3469 20.6896 11.0377 20.6706 10.729V10.7354C20.6879 10.5313 20.6523 10.3262 20.567 10.1393C20.4818 9.95236 20.3498 9.78974 20.1832 9.66663L20.18 9.66425C19.7956 9.42536 19.3453 9.30947 18.8911 9.33254H18.8959L16.8699 9.33333ZM2.38444 9.33333C2.35075 9.32978 2.31667 9.33323 2.28441 9.34347C2.25216 9.3537 2.22246 9.37049 2.19724 9.39274C2.17202 9.41498 2.15184 9.4422 2.13802 9.47261C2.12419 9.50302 2.11703 9.53594 2.117 9.56925V9.57083L1.28889 14.6787C1.28457 14.703 1.28572 14.7279 1.29226 14.7517C1.2988 14.7755 1.31058 14.7976 1.32675 14.8164C1.34098 14.8361 1.35983 14.8522 1.38171 14.8632C1.40358 14.8742 1.42783 14.8799 1.45242 14.8798H2.42231C2.45688 14.8842 2.49203 14.8815 2.52545 14.8717C2.55887 14.8619 2.58982 14.8453 2.61627 14.8229C2.64272 14.8006 2.66409 14.773 2.67897 14.742C2.69385 14.711 2.70192 14.6773 2.70264 14.643L2.93222 13.2663C2.9392 13.203 2.97098 13.1448 3.02083 13.104H3.02164C3.0766 13.0604 3.14258 13.0322 3.21256 13.0225H3.21497C3.28625 13.0101 3.35848 13.0038 3.43086 13.0035H3.43167C3.49933 13.0035 3.57989 13.0075 3.67333 13.0162C3.77521 13.0277 3.87771 13.033 3.98025 13.032C4.59489 13.032 5.15394 12.8 5.57283 12.42L5.57122 12.4216C5.787 12.1966 5.95363 11.9306 6.06086 11.6399C6.16809 11.3492 6.21364 11.04 6.19472 10.7314V10.7378C6.21206 10.5336 6.17645 10.3285 6.09122 10.1416C6.00598 9.95473 5.87392 9.79212 5.70736 9.669L5.70414 9.66663C5.32141 9.42862 4.87327 9.3125 4.42089 9.33413H4.42572L2.38444 9.33333ZM22.5104 13.9527L22.4718 13.9535C22.266 13.9537 22.0667 13.8822 21.9095 13.7516L21.9111 13.7524C21.8384 13.6866 21.7804 13.6067 21.7407 13.5177C21.7011 13.4287 21.6807 13.3326 21.6807 13.2355L21.6815 13.1998V13.1785C21.6815 12.8824 21.8032 12.614 22.0005 12.4193C22.1947 12.2237 22.4653 12.1026 22.765 12.1026H22.7916H22.79L22.8174 12.1018C23.0341 12.1018 23.2314 12.1802 23.3829 12.3092L23.3821 12.3084C23.4569 12.3765 23.5165 12.459 23.5573 12.5509C23.598 12.6427 23.619 12.7418 23.6189 12.842L23.6181 12.88V12.8784V12.8974C23.6181 13.1895 23.4948 13.454 23.2959 13.6416C23.1954 13.74 23.0761 13.818 22.945 13.8711C22.8138 13.9242 22.6733 13.9514 22.5314 13.9511H22.5112H22.5121L22.5104 13.9527ZM8.02736 13.9527L7.98708 13.9535C7.77603 13.9535 7.58189 13.8775 7.43367 13.7516L7.43447 13.7524C7.36364 13.6858 7.30727 13.6059 7.26878 13.5173C7.23029 13.4287 7.21047 13.3334 7.21053 13.237L7.21133 13.1998V13.1785C7.21133 12.8824 7.33297 12.614 7.53033 12.4193C7.72447 12.2237 7.99433 12.1026 8.294 12.1026H8.3222H8.32058L8.34797 12.1018C8.56467 12.1018 8.76203 12.1802 8.91347 12.3092L8.91267 12.3084C8.98726 12.3764 9.04674 12.4589 9.08736 12.5506C9.12798 12.6423 9.14886 12.7412 9.14869 12.8412L9.14789 12.88V12.8784V12.9061C9.14789 13.1982 9.02464 13.4611 8.82567 13.6487C8.6192 13.844 8.34372 13.953 8.05717 13.9527H8.02817H8.02978H8.02736ZM17.6191 11.926L17.8358 10.5873C17.8375 10.5676 17.8432 10.5484 17.8525 10.5309C17.8617 10.5133 17.8745 10.4977 17.8899 10.485C17.9053 10.4723 17.9231 10.4627 17.9423 10.4567C17.9615 10.4508 17.9817 10.4486 18.0018 10.4504H18.0009H18.2305L18.2797 10.4496C18.419 10.4496 18.5568 10.4591 18.6913 10.4773L18.676 10.4757C18.8009 10.4979 18.9096 10.5533 18.995 10.6325C19.0437 10.6777 19.0824 10.7321 19.1089 10.7926C19.1353 10.853 19.1489 10.9182 19.1489 10.984L19.1481 11.014V11.0125C19.165 11.1447 19.1484 11.279 19.0998 11.4035C19.0511 11.5279 18.972 11.6386 18.8693 11.7258L18.8685 11.7265C18.6118 11.8705 18.3175 11.9366 18.0227 11.9165H18.0275L17.6207 11.9292L17.6191 11.926ZM3.13603 11.926L3.35272 10.5873C3.35434 10.5676 3.35993 10.5484 3.36918 10.5307C3.37842 10.5131 3.39113 10.4975 3.40657 10.4848C3.42201 10.472 3.43986 10.4624 3.45911 10.4565C3.47835 10.4506 3.4986 10.4485 3.51867 10.4504H3.51786H3.75953C4.01744 10.4318 4.27562 10.4827 4.50628 10.5976L4.49822 10.5937C4.65047 10.6895 4.70203 10.8929 4.65128 11.2001C4.64739 11.3148 4.6155 11.4268 4.5583 11.5269C4.5011 11.6269 4.42027 11.7119 4.32261 11.7748L4.32019 11.7764C3.93838 11.9146 3.52956 11.9655 3.12475 11.9253L3.13603 11.926Z"/>
</g>
</symbol><symbol viewBox="0 0 18 18" id="person" xmlns="http://www.w3.org/2000/svg">
<path d="M11.6944 2.27039C11.0103 1.53176 10.0547 1.125 9.00002 1.125C7.93971 1.125 6.98099 1.5293 6.30002 2.26336C5.61166 3.00551 5.27627 4.01414 5.35502 5.10328C5.51111 7.25203 7.14623 9 9.00002 9C10.8538 9 12.4861 7.25238 12.6447 5.10398C12.7245 4.02469 12.387 3.01816 11.6944 2.27039ZM15.1875 16.875H2.81252C2.65054 16.8771 2.49013 16.8431 2.34296 16.7754C2.19579 16.7077 2.06555 16.6081 1.96174 16.4837C1.73322 16.2105 1.64111 15.8375 1.70931 15.4603C2.00603 13.8143 2.93205 12.4316 4.38752 11.4609C5.68056 10.5993 7.31849 10.125 9.00002 10.125C10.6815 10.125 12.3195 10.5996 13.6125 11.4609C15.068 12.4312 15.994 13.8139 16.2907 15.46C16.3589 15.8372 16.2668 16.2102 16.0383 16.4834C15.9345 16.6078 15.8043 16.7075 15.6571 16.7752C15.51 16.843 15.3495 16.8771 15.1875 16.875Z"/>
</symbol><symbol viewBox="0 0 92 65" id="quotes" xmlns="http://www.w3.org/2000/svg">
<path id="rVector" d="M7 65H26.5L39.5 39V0H0.5V39H20L7 65ZM59 65H78.5L91.5 39V0H52.5V39H72L59 65Z"/>
</symbol><symbol viewBox="0 0 18 18" id="search" xmlns="http://www.w3.org/2000/svg">
<path d="M16.0555 14.8145L12.7477 11.5066C13.544 10.4465 13.9739 9.15598 13.9725 7.83C13.9725 4.44305 11.217 1.6875 7.83 1.6875C4.44305 1.6875 1.6875 4.44305 1.6875 7.83C1.6875 11.217 4.44305 13.9725 7.83 13.9725C9.15598 13.9739 10.4465 13.544 11.5066 12.7477L14.8145 16.0555C14.9819 16.2052 15.2003 16.2851 15.4248 16.2788C15.6493 16.2725 15.8629 16.1805 16.0217 16.0217C16.1805 15.8629 16.2725 15.6493 16.2788 15.4248C16.2851 15.2003 16.2052 14.9819 16.0555 14.8145ZM3.4425 7.83C3.4425 6.96223 3.69982 6.11396 4.18193 5.39244C4.66403 4.67092 5.34927 4.10856 6.15098 3.77648C6.95269 3.4444 7.83487 3.35751 8.68596 3.5268C9.53705 3.6961 10.3188 4.11397 10.9324 4.72757C11.546 5.34117 11.9639 6.12295 12.1332 6.97404C12.3025 7.82513 12.2156 8.70731 11.8835 9.50902C11.5514 10.3107 10.9891 10.996 10.2676 11.4781C9.54604 11.9602 8.69777 12.2175 7.83 12.2175C6.66679 12.2161 5.55162 11.7534 4.72911 10.9309C3.9066 10.1084 3.4439 8.99321 3.4425 7.83Z"/>
</symbol><symbol viewBox="0 0 28 27" id="secure" xmlns="http://www.w3.org/2000/svg">
<g id="tGroup">
<path id="tVector" d="M9.73697 13.4998L12.572 16.2776L18.2421 10.722" stroke-width="2" stroke-linecap="round" stroke-linejoin="round"/>
<path id="tVector_2" d="M13.9895 1C17.3006 3.87024 21.6222 5.36468 26.0385 5.16667C26.6815 7.30974 26.8783 9.55759 26.6171 11.7766C26.3559 13.9957 25.6421 16.1407 24.5181 18.0841C23.3941 20.0275 21.8829 21.7297 20.0742 23.0896C18.2655 24.4494 16.1963 25.4392 13.9895 26C11.7827 25.4392 9.71353 24.4494 7.90485 23.0896C6.09618 21.7297 4.58495 20.0275 3.46097 18.0841C2.33699 16.1407 1.6232 13.9957 1.36201 11.7766C1.10081 9.55759 1.29755 7.30974 1.94053 5.16667C6.35689 5.36468 10.6784 3.87024 13.9895 1" stroke-width="2" stroke-linecap="round" stroke-linejoin="round"/>
</g>
</symbol><symbol viewBox="0 0 18 17" id="star" xmlns="http://www.w3.org/2000/svg">
<g id="vion:star">
<path id="vVector" d="M13.5816 15.9375C13.4698 15.938 13.3607 15.9031 13.2698 15.8379L8.99958 12.7421L4.72933 15.8379C4.6381 15.9041 4.52818 15.9395 4.41548 15.9391C4.30278 15.9387 4.19313 15.9025 4.10238 15.8356C4.01164 15.7688 3.94449 15.6748 3.91066 15.5673C3.87683 15.4598 3.87807 15.3444 3.91419 15.2376L5.57966 10.3046L1.26325 7.34455C1.16976 7.28051 1.09919 7.18824 1.06187 7.08123C1.02454 6.97423 1.02241 6.85809 1.05579 6.74979C1.08917 6.64149 1.15631 6.5467 1.2474 6.47927C1.33849 6.41185 1.44875 6.37532 1.56208 6.37502H6.8872L8.49423 1.42941C8.52885 1.32264 8.5964 1.22957 8.68719 1.16357C8.77797 1.09756 8.88733 1.06201 8.99958 1.06201C9.11183 1.06201 9.22119 1.09756 9.31198 1.16357C9.40277 1.22957 9.47031 1.32264 9.50493 1.42941L11.112 6.37668H16.4371C16.5506 6.37662 16.6611 6.4129 16.7524 6.4802C16.8438 6.54749 16.9112 6.64227 16.9448 6.75066C16.9784 6.85904 16.9764 6.97533 16.9391 7.0825C16.9018 7.18967 16.8312 7.28208 16.7376 7.34621L12.4195 10.3046L14.084 15.2363C14.1109 15.3161 14.1185 15.4012 14.1061 15.4846C14.0937 15.5679 14.0616 15.6471 14.0125 15.7157C13.9634 15.7842 13.8988 15.84 13.8238 15.8786C13.7489 15.9172 13.6659 15.9374 13.5816 15.9375Z"/>
</g>
</symbol><symbol viewBox="0 0 17 18" id="star-black" xmlns="http://www.w3.org/2000/svg">
<g id="uion:star">
<path id="uVector" d="M13.0816 16.4375C12.9698 16.438 12.8607 16.4031 12.7698 16.3379L8.49958 13.2421L4.22933 16.3379C4.1381 16.4041 4.02818 16.4395 3.91548 16.4391C3.80278 16.4387 3.69313 16.4025 3.60238 16.3356C3.51164 16.2688 3.44449 16.1748 3.41066 16.0673C3.37683 15.9598 3.37807 15.8444 3.41419 15.7376L5.07966 10.8046L0.763252 7.84455C0.669756 7.78051 0.599191 7.68824 0.561866 7.58123C0.524541 7.47423 0.522414 7.35809 0.555794 7.24979C0.589175 7.14149 0.656314 7.0467 0.747402 6.97927C0.838489 6.91185 0.948753 6.87532 1.06208 6.87502H6.3872L7.99423 1.92941C8.02885 1.82264 8.0964 1.72957 8.18719 1.66357C8.27797 1.59756 8.38733 1.56201 8.49958 1.56201C8.61183 1.56201 8.72119 1.59756 8.81198 1.66357C8.90277 1.72957 8.97031 1.82264 9.00493 1.92941L10.612 6.87668H15.9371C16.0506 6.87662 16.1611 6.9129 16.2524 6.9802C16.3438 7.04749 16.4112 7.14227 16.4448 7.25066C16.4784 7.35904 16.4764 7.47533 16.4391 7.5825C16.4018 7.68967 16.3312 7.78208 16.2376 7.84621L11.9195 10.8046L13.584 15.7363C13.6109 15.8161 13.6185 15.9012 13.6061 15.9846C13.5937 16.0679 13.5616 16.1471 13.5125 16.2157C13.4634 16.2842 13.3988 16.34 13.3238 16.3786C13.2489 16.4172 13.1659 16.4374 13.0816 16.4375Z"/>
</g>
</symbol><symbol viewBox="0 0 18 15" id="twitter" xmlns="http://www.w3.org/2000/svg">
<path id="wVector" d="M18 1.77938C17.326 2.08525 16.611 2.28559 15.879 2.37371C16.6497 1.90061 17.2265 1.15659 17.502 0.28009C16.7772 0.720447 15.9847 1.03139 15.1583 1.19965C14.652 0.644802 13.9946 0.258944 13.2715 0.0922494C12.5485 -0.0744452 11.7932 -0.0142636 11.104 0.264968C10.4147 0.5442 9.82337 1.02956 9.40681 1.65795C8.99025 2.28633 8.76775 3.02866 8.76825 3.78842C8.76825 4.08597 8.8005 4.37429 8.86575 4.65031C7.39688 4.5762 5.95974 4.18562 4.64796 3.50403C3.33619 2.82244 2.17924 1.86513 1.2525 0.694508C0.923233 1.27231 0.750528 1.92981 0.75225 2.59898C0.75225 3.91144 1.4025 5.07088 2.3955 5.74979C1.80897 5.73071 1.23544 5.56777 0.723 5.27463V5.32307C0.722492 6.1974 1.01732 7.04494 1.55738 7.72165C2.09744 8.39836 2.84942 8.86248 3.6855 9.03515C3.1418 9.188 2.57109 9.21063 2.0175 9.10127C2.25331 9.85345 2.7124 10.5113 3.33066 10.9831C3.94892 11.4548 4.69546 11.7167 5.466 11.7323C4.69998 12.3487 3.82291 12.8042 2.88499 13.0726C1.94706 13.3411 0.966695 13.4174 0 13.297C1.68789 14.4105 3.65306 15.0018 5.66025 15C12.4537 15 16.1693 9.23044 16.1693 4.22667C16.1693 4.06521 16.1632 3.89913 16.1572 3.7369C16.8792 3.20105 17.503 2.53861 18 1.78014V1.77938Z"/>
</symbol><symbol viewBox="0 0 30 24" id="visa" xmlns="http://www.w3.org/2000/svg">
<g id="xbrandico:visa">
<path id="xVector" d="M1.2 2.58008C0.53739 2.58008 0 3.11732 0 3.78008V20.2201C0 20.8828 0.53766 21.4201 1.2 21.4201H28.8C29.4626 21.4201 30 20.8828 30 20.2201V3.78008C30 3.11735 29.4623 2.58008 28.8 2.58008H1.2ZM17.9175 8.19476C18.6476 8.19476 19.2328 8.35604 19.6059 8.50601L19.3509 10.1101L19.1822 10.0248C18.8346 9.87479 18.3881 9.73046 17.7722 9.74069C17.0349 9.74069 16.6941 10.0696 16.6941 10.3773C16.6898 10.724 17.0923 10.9527 17.7506 11.2951C18.8371 11.8234 19.3393 12.4639 19.3322 13.306C19.3176 14.8425 18.0325 15.8354 16.0528 15.8354C15.2082 15.8261 14.3945 15.6473 13.9547 15.4407L14.2191 13.7832L14.4619 13.9013C15.0804 14.1777 15.4809 14.2895 16.2347 14.2895C16.776 14.2895 17.3569 14.0628 17.3616 13.5666C17.3651 13.2426 17.1187 13.0116 16.3856 12.6488C15.6713 12.2947 14.7242 11.7015 14.7347 10.6379C14.7459 9.19907 16.0566 8.19476 17.9175 8.19476ZM2.65311 8.43008H5.69343C6.10284 8.44556 6.43338 8.57738 6.5475 9.02165L7.20282 12.4041C7.20291 12.4044 7.2027 12.4057 7.20282 12.406L7.39968 13.4195L9.24561 8.43008H11.2425L8.27436 15.7332L6.27936 15.7351L4.69125 9.84194C5.63619 10.3425 6.44067 10.9218 6.90657 11.7188C6.78645 11.4666 6.62817 11.1819 6.42564 10.9013C6.18978 10.5746 5.68041 10.1527 5.4675 9.97319C4.7256 9.34778 3.71805 8.84267 2.62968 8.5754L2.65311 8.43008ZM12.0366 8.43851H13.9894L12.7678 15.7304H10.815L12.0366 8.43851ZM23.0662 8.43851H24.5456L26.0944 15.7304H24.3188C24.3188 15.7304 24.1426 14.8927 24.0853 14.6373C23.8062 14.6373 21.8543 14.6345 21.6347 14.6345C21.5604 14.8319 21.2316 15.7304 21.2316 15.7304H19.2225L22.0641 9.04415C22.2652 8.56901 22.6082 8.43851 23.0662 8.43851ZM23.2116 10.3998C23.1155 10.671 22.9482 11.109 22.9594 11.0898C22.9594 11.0898 22.3582 12.693 22.201 13.1091L23.7806 13.1082C23.6339 12.4129 23.487 11.7176 23.34 11.0223L23.2116 10.3998V10.3998Z"/>
</g>
</symbol><symbol viewBox="0 0 22 15" id="youtube" xmlns="http://www.w3.org/2000/svg">
<path id="yVector" d="M21.5359 2.34184C21.4107 1.88881 21.1655 1.47575 20.825 1.14401C20.4844 0.812264 20.0603 0.573472 19.5953 0.451531C17.8825 1.36847e-07 11 0 11 0C11 0 4.11751 1.36847e-07 2.40475 0.451531C1.93966 0.573472 1.51561 0.812264 1.17504 1.14401C0.83447 1.47575 0.589324 1.88881 0.464138 2.34184C0.144326 4.04332 -0.0108694 5.77027 0.000591168 7.5C-0.0108694 9.22973 0.144326 10.9567 0.464138 12.6582C0.589324 13.1112 0.83447 13.5243 1.17504 13.856C1.51561 14.1877 1.93966 14.4265 2.40475 14.5485C4.11751 15 11 15 11 15C11 15 17.8825 15 19.5953 14.5485C20.0603 14.4265 20.4844 14.1877 20.825 13.856C21.1655 13.5243 21.4107 13.1112 21.5359 12.6582C21.8557 10.9567 22.0109 9.22973 21.9994 7.5C22.0109 5.77027 21.8557 4.04332 21.5359 2.34184ZM8.80012 10.7143V4.28572L14.512 7.5L8.80012 10.7143Z"/>
</symbol></svg>